HIERARCHY
ROOT Hips
{
	OFFSET 0.000000 0.907666 0.000000
	CHANNELS 6 Xposition Yposition Zposition Zrotation Yrotation Xrotation 
	JOINT LeftUpperLeg
	{
		OFFSET 0.039746 -0.031645 -0.040236
		CHANNELS 3 Zrotation Yrotation Xrotation
		JOINT LeftLowerLeg
		{
			OFFSET 0.111294 -0.345770 0.131780
			CHANNELS 3 Zrotation Yrotation Xrotation
			JOINT LeftFoot
			{
				OFFSET -0.153061 -0.356025 -0.180057
				CHANNELS 3 Zrotation Yrotation Xrotation
				End Site #name: L_Foot
				{
					OFFSET 0.042624 -0.117101 0.061326
				}
			}
		}
	}
	JOINT RightUpperLeg
	{
		OFFSET -0.058531 -0.043485 -0.002233
		CHANNELS 3 Zrotation Yrotation Xrotation
		JOINT RightLowerLeg
		{
			OFFSET 0.067446 -0.363948 0.149217
			CHANNELS 3 Zrotation Yrotation Xrotation
			JOINT RightFoot
			{
				OFFSET 0.099331 -0.401317 -0.059868
				CHANNELS 3 Zrotation Yrotation Xrotation
				End Site #name: R_Foot
				{
					OFFSET -0.021771 -0.044901 0.119750
				}
			}
		}
	}
	JOINT Spine
	{
		OFFSET -0.012746 0.177669 0.008786
		CHANNELS 3 Zrotation Yrotation Xrotation
		JOINT Chest
		{
			OFFSET 0.052611 -0.023413 0.099572
			CHANNELS 3 Zrotation Yrotation Xrotation
			JOINT UpperChest
			{
				OFFSET 0.017786 -0.047749 0.053776
				CHANNELS 3 Zrotation Yrotation Xrotation
				JOINT Neck
				{
					OFFSET 0.080456 0.042630 0.161630
					CHANNELS 3 Zrotation Yrotation Xrotation
					End Site #name: Head
					{
						OFFSET 0.016502 -0.035412 0.074798
					}
				}
				JOINT LeftShoulder
				{
					OFFSET 0.100736 0.018260 0.052347
					CHANNELS 3 Zrotation Yrotation Xrotation
					JOINT LeftUpperArm
					{
						OFFSET 0.089842 -0.102433 0.013361
						CHANNELS 3 Zrotation Yrotation Xrotation
						JOINT LeftLowerArm
						{
							OFFSET 0.057214 -0.221430 -0.009773
							CHANNELS 3 Zrotation Yrotation Xrotation
							End Site #name: L_Wrist
							{
								OFFSET -0.009018 -0.280569 0.040473
							}
						}
					}
				}
				JOINT RightShoulder
				{
					OFFSET -0.018945 0.008766 0.115504
					CHANNELS 3 Zrotation Yrotation Xrotation
					JOINT RightUpperArm
					{
						OFFSET -0.066178 -0.103390 0.061031
						CHANNELS 3 Zrotation Yrotation Xrotation
						JOINT RightLowerArm
						{
							OFFSET -0.082445 -0.215283 0.018196
							CHANNELS 3 Zrotation Yrotation Xrotation
							End Site #name: R_Wrist
							{
								OFFSET -0.023016 -0.287172 0.021073
							}
						}
					}
				}
			}
		}
	}
}
MOTION
Frames: 9
Frame Time: 0.041667
0.228279 0.836209 0.643463 -2.057806 -27.437616 -3.200895 -17.853186 -15.467479 -14.831844 25.524626 -16.774600 2.904355 5.685168 -0.132834 -9.866104 -26.951660 -7.856830 8.237117 14.516481 -1.106167 8.711648 -5.286599 -12.752010 -7.225458 -18.193487 -36.578975 14.035449 2.716572 3.254387 0.707006 -0.292167 4.481203 -2.492404 -2.454677 -0.428522 9.590327 -0.056127 5.181420 5.948775 1.576112 5.520197 22.457767 -8.592858 -1.844196 -13.335143 -4.289979 -4.396837 3.397346 9.634470 -11.342063 25.356340 24.880664 6.215429 -13.899530 
0.216428 0.836506 0.672118 -2.147516 -26.979911 -3.500020 -15.138200 -14.282387 -15.700945 29.316975 -10.714664 -7.596589 -1.149619 -4.125103 -8.915126 -27.327106 -7.048289 10.292729 14.455153 -1.044498 9.119907 -5.726826 -13.979162 -8.296326 -15.069860 -34.638785 10.588827 1.027397 1.579241 1.228403 0.093835 4.905910 -3.518050 -1.877468 0.323007 8.978859 2.052124 5.645553 6.409293 5.900353 3.874683 19.901065 -13.005694 -3.169124 -15.027534 -6.937191 -5.743322 3.401951 2.951167 -11.677247 28.989012 31.166128 6.437130 -10.857357 
0.208583 0.829497 0.705440 -3.185760 -26.559928 -3.292225 -14.106279 -12.465675 -13.510267 31.835080 -5.930509 -15.180618 -3.348885 -4.880952 -7.395867 -27.894594 -6.273230 12.398452 14.117187 -0.788752 10.598716 -5.797565 -14.144715 -8.781096 -11.627350 -33.281045 6.403978 -0.281338 0.474961 2.136998 0.188967 5.230658 -4.758449 -1.334805 0.830523 7.872741 2.644140 4.570742 5.087126 8.581135 2.040615 13.298004 -13.539606 -3.033819 -11.947558 -9.321425 -6.422100 2.378103 -2.576528 -11.430075 31.428095 36.702381 6.154940 -7.703157 
0.206945 0.827803 0.742367 -3.441459 -26.481750 -2.871982 -15.240256 -13.120565 -13.486995 30.305981 -8.682959 -10.802209 0.994582 -2.136585 -7.288426 -29.029914 -5.492823 14.855758 13.147038 -0.682609 9.626895 -5.104460 -12.004044 -8.204806 -10.475323 -33.677123 4.723721 -0.944241 0.033980 2.884061 -0.172153 6.283454 -5.501813 -1.407726 0.092412 6.425531 0.647273 2.471653 2.762297 7.924037 1.063474 7.548754 -9.198071 -1.752438 -8.446965 -9.126885 -5.666839 1.058657 -1.188555 -10.436670 27.953884 36.460646 6.380117 -8.323070 
0.208365 0.826411 0.779504 -3.090056 -27.061826 -2.467128 -16.996212 -14.292519 -13.709960 28.747435 -11.048730 -6.779815 5.265493 0.029967 -8.569200 -31.098058 -5.573783 15.989892 11.331801 -0.182427 10.165616 -3.315899 -7.451997 -4.528253 -10.929468 -33.794286 5.305377 -0.682325 0.258116 2.728867 -0.753012 7.090022 -5.875098 -1.462408 -0.380664 5.575767 -2.086798 0.384868 0.727410 5.346160 0.429677 3.166260 -3.270991 -0.456148 -5.108589 -6.800200 -3.588898 -0.519876 3.019940 -9.004601 22.521965 32.608750 6.798796 -11.072916 
0.210451 0.827640 0.813318 -3.180031 -27.271242 -1.721881 -19.222904 -14.925403 -12.509673 28.961182 -12.664970 -4.917165 7.565681 0.889037 -10.377774 -32.677530 -7.028748 14.061329 10.956117 0.252849 12.444619 -2.683630 -6.530111 -1.768736 -12.296629 -34.004915 7.087583 -0.011579 0.798006 2.223238 -0.918655 7.147642 -5.884597 -1.437013 -0.436020 5.343691 -4.445295 -0.640232 -0.041830 2.913561 -0.124987 0.012051 2.731691 0.534397 -2.468179 -2.979829 -0.800492 -1.550129 8.525923 -6.665723 15.818028 25.464294 6.292532 -13.749935 
0.210107 0.830882 0.841834 -3.770504 -27.275666 -0.965575 -21.208111 -14.926923 -10.579344 30.350458 -13.747481 -4.610706 8.156357 0.946918 -11.430642 -32.817977 -8.720552 10.875775 11.924695 0.056966 12.826805 -2.718654 -6.719787 -1.467926 -14.658235 -34.332025 10.141683 1.171204 1.754050 1.280362 -0.878417 7.013570 -5.426151 -1.714081 -1.011890 5.232345 -5.697368 -1.503225 -0.747350 1.100523 -0.228329 -0.725079 6.839438 1.162373 -1.846383 0.467957 1.822393 -2.358396 14.279102 -3.804640 9.547582 18.385155 5.009167 -14.549038 
0.206632 0.832776 0.866374 -4.129446 -27.024795 -0.212575 -22.813772 -14.817249 -8.916592 31.585332 -14.621137 -4.470083 8.546409 0.884460 -12.485956 -32.067798 -10.062383 7.753353 12.693753 -0.440763 10.643155 -2.691689 -6.848726 -0.811958 -16.829530 -34.013022 13.118275 2.342575 2.624580 0.019624 -0.815765 6.604304 -4.710342 -2.064270 -1.723851 5.136569 -6.253734 -1.950509 -1.114318 -0.392637 -0.224642 -0.923745 9.158465 1.536879 -1.830944 3.020766 3.956915 -3.068581 18.290237 -1.080472 4.734660 13.126316 3.855778 -14.363659 
0.200101 0.832641 0.888542 -4.539183 -26.598475 0.613707 -23.964392 -14.599480 -7.549950 32.469991 -15.484859 -4.107965 9.030051 0.885695 -13.558993 -30.696862 -11.022007 4.806951 13.137411 -1.013121 7.060867 -2.557186 -6.810593 0.234590 -18.459645 -33.169940 15.552085 3.307904 3.328879 -1.160626 -0.707401 6.127974 -3.990905 -2.505623 -2.671587 4.927780 -6.395187 -2.156009 -1.299487 -1.391211 -0.156665 -0.804438 10.423107 1.782216 -2.144782 4.885375 5.621516 -3.633423 20.764685 1.279756 1.030641 9.555107 3.001304 -13.693185 
